<svg width="61" height="62" viewBox="0 0 61 62" fill="none" xmlns="http://www.w3.org/2000/svg">
<g id="1161953_instagram_icon 1">
<g id="Group">
<path id="Vector" d="M30.3386 18.2612C22.8077 18.2612 16.5679 24.494 16.5679 32.2577C16.5679 40.0214 22.7001 46.2542 30.3386 46.2542C37.977 46.2542 44.1093 39.912 44.1093 32.2577C44.1093 24.6034 37.8695 18.2612 30.3386 18.2612ZM30.3386 41.2242C25.4973 41.2242 21.5167 37.1783 21.5167 32.2577C21.5167 27.3371 25.4973 23.2912 30.3386 23.2912C35.1799 23.2912 39.1605 27.3371 39.1605 32.2577C39.1605 37.1783 35.1799 41.2242 30.3386 41.2242Z" fill="white"/>
<path id="Vector_2" d="M44.6473 21.1041C46.3704 21.1041 47.7672 19.6844 47.7672 17.933C47.7672 16.1817 46.3704 14.762 44.6473 14.762C42.9242 14.762 41.5273 16.1817 41.5273 17.933C41.5273 19.6844 42.9242 21.1041 44.6473 21.1041Z" fill="white"/>
<path id="Vector_3" d="M52.716 9.73202C49.9189 6.77964 45.9383 5.24878 41.4197 5.24878H19.2575C9.8977 5.24878 3.65784 11.5909 3.65784 21.1042V43.5204C3.65784 48.2223 5.16401 52.2682 8.17636 55.2206C11.0811 58.0636 14.9541 59.4851 19.3651 59.4851H41.3122C45.9383 59.4851 49.8113 57.9542 52.6085 55.2206C55.5132 52.3775 57.0194 48.3317 57.0194 43.6297V21.1042C57.0194 16.5116 55.5132 12.5751 52.716 9.73202ZM52.2857 43.6297C52.2857 47.0195 51.1023 49.7532 49.1658 51.6121C47.2293 53.471 44.5397 54.4551 41.3122 54.4551H19.3651C16.1376 54.4551 13.448 53.471 11.5115 51.6121C9.57494 49.6438 8.60669 46.9102 8.60669 43.5204V21.1042C8.60669 17.8237 9.57494 15.09 11.5115 13.1218C13.3404 11.2629 16.1376 10.2788 19.3651 10.2788H41.5273C44.7548 10.2788 47.4444 11.2629 49.3809 13.2311C51.2099 15.1994 52.2857 17.9331 52.2857 21.1042V43.6297Z" fill="white"/>
</g>
</g>
</svg>
