<svg width="73" height="73" viewBox="0 0 73 73" fill="none" xmlns="http://www.w3.org/2000/svg">
<g id="icons8-youtube-play 1">
<path id="Vector" d="M65.5517 21.1699C64.97 17.959 62.1983 15.6208 58.9817 14.8908C54.1683 13.8699 45.26 13.1399 35.6217 13.1399C25.9891 13.1399 16.9383 13.8699 12.1191 14.8908C8.90829 15.6208 6.13086 17.8108 5.54915 21.1699C4.96172 24.8199 4.38 29.9299 4.38 36.4999C4.38 43.0699 4.96172 48.1799 5.69172 51.8299C6.27915 55.0408 9.05087 57.379 12.2617 58.109C17.3717 59.1299 26.1317 59.8599 35.77 59.8599C45.4083 59.8599 54.1683 59.1299 59.2783 58.109C62.4891 57.379 65.2609 55.189 65.8483 51.8299C66.43 48.1799 67.16 42.9216 67.3083 36.4999C67.0117 29.9299 66.2817 24.8199 65.5517 21.1699ZM27.74 46.7199V26.2799L45.5509 36.4999L27.74 46.7199Z" fill="white"/>
</g>
</svg>
